<svg width="400" height="180" viewBox="0 0 400 180" fill="none" xmlns="http://www.w3.org/2000/svg">
  <rect width="400" height="180" rx="12" fill="#2E7D32"/>
  <rect x="20" y="30" width="360" height="120" rx="8" fill="white"/>
  
  <!-- Server rack -->
  <rect x="40" y="50" width="80" height="100" rx="5" fill="#424242"/>
  <rect x="45" y="55" width="70" height="8" rx="2" fill="#616161"/>
  <rect x="45" y="68" width="70" height="15" rx="2" fill="#212121"/>
  <rect x="47" y="71" width="15" height="3" rx="1" fill="#4CAF50"/>
  <rect x="65" y="71" width="15" height="3" rx="1" fill="#FFC107"/>
  <rect x="83" y="71" width="15" height="3" rx="1" fill="#F44336"/>
  <rect x="47" y="78" width="25" height="2" rx="1" fill="#757575"/>
  <rect x="47" y="82" width="30" height="2" rx="1" fill="#757575"/>
  
  <rect x="45" y="88" width="70" height="15" rx="2" fill="#212121"/>
  <rect x="47" y="91" width="15" height="3" rx="1" fill="#4CAF50"/>
  <rect x="65" y="91" width="15" height="3" rx="1" fill="#FFC107"/>
  <rect x="83" y="91" width="15" height="3" rx="1" fill="#F44336"/>
  <rect x="47" y="98" width="25" height="2" rx="1" fill="#757575"/>
  <rect x="47" y="102" width="30" height="2" rx="1" fill="#757575"/>
  
  <!-- Linux penguin (Tux) -->
  <ellipse cx="180" cy="85" rx="15" ry="20" fill="#000000"/>
  <ellipse cx="180" cy="80" rx="12" ry="15" fill="#000000"/>
  <circle cx="175" cy="75" r="3" fill="white"/>
  <circle cx="185" cy="75" r="3" fill="white"/>
  <circle cx="178" cy="73" r="1" fill="black"/>
  <circle cx="182" cy="73" r="1" fill="black"/>
  <ellipse cx="180" cy="85" rx="8" ry="6" fill="white"/>
  <polygon points="180,82 185,85 180,88 175,85" fill="#FFA000"/>
  <ellipse cx="175" cy="105" rx="8" ry="6" fill="#000000"/>
  <ellipse cx="185" cy="105" rx="8" ry="6" fill="#000000"/>
  <ellipse cx="175" cy="110" rx="6" ry="4" fill="#FFA000"/>
  <ellipse cx="185" cy="110" rx="6" ry="4" fill="#FFA000"/>
  
  <!-- Ubuntu logo -->
  <circle cx="250" cy="75" r="25" fill="#DD4814"/>
  <circle cx="250" cy="75" r="20" fill="#77216F"/>
  <circle cx="250" cy="75" r="15" fill="#5E2750"/>
  <circle cx="250" cy="75" r="10" fill="#C5412D"/>
  <circle cx="250" cy="75" r="5" fill="#FFFFFF"/>
  
  <!-- Docker container -->
  <rect x="220" y="100" width="60" height="40" rx="3" fill="#2496ED"/>
  <rect x="225" y="105" width="50" height="8" rx="2" fill="#0DB7ED"/>
  <rect x="225" y="117" width="50" height="8" rx="2" fill="#0DB7ED"/>
  <rect x="225" y="129" width="50" height="8" rx="2" fill="#0DB7ED"/>
  
  <!-- Network diagram -->
  <rect x="310" y="60" width="40" height="60" rx="3" fill="#E8F5E8" stroke="#4CAF50" stroke-width="2"/>
  <circle cx="330" cy="75" r="5" fill="#4CAF50"/>
  <circle cx="330" cy="90" r="5" fill="#4CAF50"/>
  <circle cx="330" cy="105" r="5" fill="#4CAF50"/>
  <line x1="330" y1="80" x2="330" y2="85" stroke="#4CAF50" stroke-width="2"/>
  <line x1="330" y1="95" x2="330" y2="100" stroke="#4CAF50" stroke-width="2"/>
  
  <!-- SSH symbol -->
  <rect x="320" y="130" width="20" height="15" rx="2" fill="#000000"/>
  <rect x="322" y="132" width="16" height="11" rx="1" fill="#FFFFFF"/>
  <rect x="324" y="134" width="12" height="7" rx="1" fill="#000000"/>
  
  <!-- NFS symbol -->
  <circle cx="345" cy="137" r="6" fill="#FFA000"/>
  <circle cx="345" cy="137" r="4" fill="#FFF3E0"/>
  <path d="M342 134 L348 140 L342 140 Z" fill="#FFA000"/>
  
  <!-- Database symbol -->
  <ellipse cx="200" cy="130" rx="8" ry="6" fill="#FFC107"/>
  <rect x="192" y="130" width="16" height="12" rx="2" fill="#FFC107"/>
  <ellipse cx="200" cy="142" rx="8" ry="6" fill="#FFA000"/>
  
  <!-- Monitoring dashboard -->
  <rect x="40" y="155" width="120" height="15" rx="3" fill="#F5F5F5" stroke="#E0E0E0"/>
  <rect x="45" y="158" width="20" height="9" rx="2" fill="#4CAF50"/>
  <rect x="68" y="158" width="15" height="9" rx="2" fill="#FF9800"/>
  <rect x="86" y="158" width="18" height="9" rx="2" fill="#F44336"/>
  <rect x="107" y="158" width="25" height="9" rx="2" fill="#2196F3"/>
  <rect x="135" y="158" width="22" height="9" rx="2" fill="#9C27B0"/>
  
  <!-- Title -->
  <text x="200" y="165" font-family="Arial, sans-serif" font-size="14" font-weight="bold" fill="white" text-anchor="middle">Linux Home Lab Server</text>
</svg>