<svg width="400" height="180" viewBox="0 0 400 180" fill="none" xmlns="http://www.w3.org/2000/svg">
  <rect width="400" height="180" rx="12" fill="#607D8B"/>
  <rect x="20" y="30" width="360" height="120" rx="8" fill="white"/>
  
  <!-- Browser window -->
  <rect x="30" y="50" width="200" height="100" rx="8" fill="#FAFAFA" stroke="#E0E0E0"/>
  <rect x="30" y="50" width="200" height="20" rx="8 8 0 0" fill="#F5F5F5" stroke="#E0E0E0"/>
  
  <!-- Browser controls -->
  <circle cx="45" cy="60" r="3" fill="#FF5F56"/>
  <circle cx="55" cy="60" r="3" fill="#FFBD2E"/>
  <circle cx="65" cy="60" r="3" fill="#27CA3F"/>
  
  <!-- Navigation bar -->
  <rect x="80" y="55" width="120" height="8" rx="4" fill="#E0E0E0"/>
  <rect x="85" y="58" width="15" height="2" rx="1" fill="#9E9E9E"/>
  <rect x="105" y="58" width="15" height="2" rx="1" fill="#9E9E9E"/>
  <rect x="125" y="58" width="15" height="2" rx="1" fill="#9E9E9E"/>
  
  <!-- Hero section -->
  <rect x="40" y="75" width="180" height="25" rx="3" fill="#3F51B5"/>
  <rect x="45" y="80" width="120" height="3" rx="1.5" fill="white"/>
  <rect x="45" y="86" width="100" height="2" rx="1" fill="#C5CAE9"/>
  
  <!-- Profile image -->
  <circle cx="70" cy="110" r="12" fill="#FFC107"/>
  <rect x="65" y="122" width="10" height="15" rx="2" fill="#FF9800"/>
  
  <!-- About section -->
  <rect x="250" y="60" width="110" height="80" rx="5" fill="#F5F5F5" stroke="#E0E0E0"/>
  <rect x="260" y="70" width="90" height="3" rx="1.5" fill="#3F51B5"/>
  <rect x="260" y="77" width="80" height="2" rx="1" fill="#9FA8DA"/>
  <rect x="260" y="82" width="85" height="2" rx="1" fill="#9FA8DA"/>
  <rect x="260" y="87" width="75" height="2" rx="1" fill="#9FA8DA"/>
  <rect x="260" y="92" width="88" height="2" rx="1" fill="#9FA8DA"/>
  <rect x="260" y="97" width="70" height="2" rx="1" fill="#9FA8DA"/>
  <rect x="260" y="102" width="82" height="2" rx="1" fill="#9FA8DA"/>
  <rect x="260" y="107" width="65" height="2" rx="1" fill="#9FA8DA"/>
  <rect x="260" y="112" width="90" height="2" rx="1" fill="#9FA8DA"/>
  <rect x="260" y="117" width="75" height="2" rx="1" fill="#9FA8DA"/>
  
  <!-- Skills section -->
  <rect x="250" y="145" width="110" height="15" rx="3" fill="#E8F5E8"/>
  <rect x="255" y="148" width="20" height="9" rx="2" fill="#4CAF50"/>
  <rect x="278" y="148" width="25" height="9" rx="2" fill="#2196F3"/>
  <rect x="306" y="148" width="15" height="9" rx="2" fill="#FF9800"/>
  <rect x="324" y="148" width="18" height="9" rx="2" fill="#F44336"/>
  <rect x="345" y="148" width="12" height="9" rx="2" fill="#9C27B0"/>
  
  <!-- Projects thumbnails -->
  <rect x="40" y="105" width="25" height="15" rx="2" fill="#FFEB3B"/>
  <rect x="70" y="105" width="25" height="15" rx="2" fill="#4CAF50"/>
  <rect x="100" y="105" width="25" height="15" rx="2" fill="#2196F3"/>
  <rect x="130" y="105" width="25" height="15" rx="2" fill="#FF5722"/>
  
  <!-- Social links -->
  <circle cx="270" cy="135" r="4" fill="#3B5998"/>
  <circle cx="285" cy="135" r="4" fill="#0077B5"/>
  <circle cx="300" cy="135" r="4" fill="#E4405F"/>
  <circle cx="315" cy="135" r="4" fill="#333"/>
  
  <!-- Title -->
  <text x="200" y="165" font-family="Arial, sans-serif" font-size="14" font-weight="bold" fill="white" text-anchor="middle">Personal Portfolio Website</text>
</svg>