<svg width="400" height="180" viewBox="0 0 400 180" fill="none" xmlns="http://www.w3.org/2000/svg">
  <rect width="400" height="180" rx="12" fill="#2196F3"/>
  <rect x="20" y="30" width="360" height="120" rx="8" fill="white"/>
  
  <!-- Recipe book icon -->
  <rect x="40" y="50" width="40" height="60" rx="4" fill="#4CAF50"/>
  <rect x="38" y="48" width="44" height="8" rx="2" fill="#2E7D32"/>
  <rect x="42" y="55" width="36" height="2" fill="white"/>
  <rect x="42" y="62" width="36" height="2" fill="white"/>
  <rect x="42" y="69" width="36" height="2" fill="white"/>
  
  <!-- Phone outline -->
  <rect x="200" y="40" width="120" height="100" rx="12" fill="#E3F2FD" stroke="#2196F3" stroke-width="2"/>
  <rect x="205" y="45" width="110" height="90" rx="8" fill="white"/>
  <rect x="250" y="47" width="20" height="3" rx="1.5" fill="#2196F3"/>
  
  <!-- Recipe content in phone -->
  <rect x="215" y="60" width="80" height="4" rx="2" fill="#4CAF50"/>
  <rect x="215" y="70" width="60" height="3" rx="1.5" fill="#81C784"/>
  <rect x="215" y="78" width="70" height="3" rx="1.5" fill="#81C784"/>
  <rect x="215" y="86" width="50" height="3" rx="1.5" fill="#81C784"/>
  <rect x="215" y="94" width="75" height="3" rx="1.5" fill="#81C784"/>
  
  <!-- Flutter logo -->
  <circle cx="330" cy="90" r="25" fill="#02569B"/>
  <circle cx="330" cy="90" r="20" fill="#0175C2"/>
  <circle cx="330" cy="90" r="15" fill="#13B9FD"/>
  <path d="M330 70 L340 80 L335 85 L345 95 L330 80 L315 95 L325 85 L320 80 Z" fill="white"/>
  
  <!-- Title -->
  <text x="200" y="160" font-family="Arial, sans-serif" font-size="14" font-weight="bold" fill="white">Flutter Recipe App</text>
</svg>