<svg width="400" height="180" viewBox="0 0 400 180" fill="none" xmlns="http://www.w3.org/2000/svg">
  <rect width="400" height="180" rx="12" fill="#FF9800"/>
  <rect x="20" y="30" width="360" height="120" rx="8" fill="white"/>
  
  <!-- School building -->
  <rect x="40" y="60" width="80" height="60" fill="#FFC107"/>
  <rect x="45" y="65" width="15" height="15" fill="#8BC34A"/>
  <rect x="65" y="65" width="15" height="15" fill="#8BC34A"/>
  <rect x="85" y="65" width="15" height="15" fill="#8BC34A"/>
  <rect x="55" y="85" width="10" height="20" fill="#6D4C41"/>
  <rect x="75" y="85" width="10" height="20" fill="#6D4C41"/>
  <rect x="95" y="85" width="10" height="20" fill="#6D4C41"/>
  
  <!-- School flag -->
  <rect x="80" y="45" width="2" height="15" fill="#6D4C41"/>
  <polygon points="82,45 95,50 82,55" fill="#FF5722"/>
  
  <!-- Computer/monitor -->
  <rect x="150" y="70" width="100" height="70" rx="5" fill="#E0E0E0"/>
  <rect x="155" y="75" width="90" height="50" rx="3" fill="#212121"/>
  <rect x="190" y="125" width="20" height="8" rx="2" fill="#616161"/>
  <rect x="185" y="133" width="30" height="3" rx="1.5" fill="#757575"/>
  
  <!-- Website content on screen -->
  <rect x="160" y="80" width="25" height="3" rx="1.5" fill="#4CAF50"/>
  <rect x="160" y="87" width="35" height="2" rx="1" fill="#81C784"/>
  <rect x="160" y="92" width="30" height="2" rx="1" fill="#81C784"/>
  <rect x="160" y="97" width="40" height="2" rx="1" fill="#81C784"/>
  <rect x="160" y="102" width="25" height="2" rx="1" fill="#81C784"/>
  <rect x="160" y="107" width="35" height="2" rx="1" fill="#81C784"/>
  
  <!-- HTML/CSS/JS icons -->
  <rect x="270" y="60" width="25" height="25" rx="3" fill="#E65100"/>
  <text x="282" y="75" font-family="Arial, sans-serif" font-size="8" font-weight="bold" fill="white" text-anchor="middle">HTML</text>
  
  <rect x="270" y="90" width="25" height="25" rx="3" fill="#2196F3"/>
  <text x="282" y="105" font-family="Arial, sans-serif" font-size="8" font-weight="bold" fill="white" text-anchor="middle">CSS</text>
  
  <rect x="270" y="120" width="25" height="25" rx="3" fill="#FFEB3B"/>
  <text x="282" y="135" font-family="Arial, sans-serif" font-size="8" font-weight="bold" fill="black" text-anchor="middle">JS</text>
  
  <!-- Students icons -->
  <circle cx="320" cy="70" r="8" fill="#FF7043"/>
  <rect x="315" y="78" width="10" height="15" rx="2" fill="#8BC34A"/>
  
  <circle cx="340" cy="85" r="8" fill="#42A5F5"/>
  <rect x="335" y="93" width="10" height="15" rx="2" fill="#FF9800"/>
  
  <circle cx="320" cy="100" r="8" fill="#AB47BC"/>
  <rect x="315" y="108" width="10" height="15" rx="2" fill="#E91E63"/>
  
  <!-- Title -->
  <text x="200" y="165" font-family="Arial, sans-serif" font-size="14" font-weight="bold" fill="white" text-anchor="middle">School Website</text>
</svg>